<svg xmlns="http://www.w3.org/2000/svg" style="display: none;"><symbol id="line" viewBox="0 0 491.858 491.858"><title>line</title><path d="M465.167,211.613H240.21H26.69c-8.424,0-26.69,11.439-26.69,34.316s18.267,34.316,26.69,34.316h213.52h224.959 c8.421,0,26.689-11.439,26.689-34.316S473.59,211.613,465.167,211.613z"/></symbol><symbol id="cancel" viewBox="0 0 300.003 300.003"><title>cancel</title><path d="M150,0C67.159,0,0.001,67.159,0.001,150c0,82.838,67.157,150.003,149.997,150.003S300.002,232.838,300.002,150 C300.002,67.159,232.839,0,150,0z M206.584,207.171c-5.989,5.984-15.691,5.984-21.675,0l-34.132-34.132l-35.686,35.686 c-5.986,5.984-15.689,5.984-21.672,0c-5.989-5.991-5.989-15.691,0-21.68l35.683-35.683L95.878,118.14 c-5.984-5.991-5.984-15.691,0-21.678c5.986-5.986,15.691-5.986,21.678,0l33.222,33.222l31.671-31.673 c5.986-5.984,15.694-5.986,21.675,0c5.989,5.991,5.989,15.697,0,21.678l-31.668,31.671l34.13,34.132 C212.57,191.475,212.573,201.183,206.584,207.171z"/></symbol><symbol id="close" viewBox="0 0 47.971 47.971"><title>close</title><path d="M28.228,23.986L47.092,5.122c1.172-1.171,1.172-3.071,0-4.242c-1.172-1.172-3.07-1.172-4.242,0L23.986,19.744L5.121,0.88 c-1.172-1.172-3.07-1.172-4.242,0c-1.172,1.171-1.172,3.071,0,4.242l18.865,18.864L0.879,42.85c-1.172,1.171-1.172,3.071,0,4.242 C1.465,47.677,2.233,47.97,3,47.97s1.535-0.293,2.121-0.879l18.865-18.864L42.85,47.091c0.586,0.586,1.354,0.879,2.121,0.879 s1.535-0.293,2.121-0.879c1.172-1.171,1.172-3.071,0-4.242L28.228,23.986z"/></symbol><symbol id="tick" viewBox="0 0 191.667 191.667"><title>tick</title><path d="M95.833,0C42.991,0,0,42.99,0,95.833s42.991,95.834,95.833,95.834s95.833-42.991,95.833-95.834S148.676,0,95.833,0z M150.862,79.646l-60.207,60.207c-2.56,2.56-5.963,3.969-9.583,3.969c-3.62,0-7.023-1.409-9.583-3.969l-30.685-30.685 c-2.56-2.56-3.97-5.963-3.97-9.583c0-3.621,1.41-7.024,3.97-9.584c2.559-2.56,5.962-3.97,9.583-3.97c3.62,0,7.024,1.41,9.583,3.971 l21.101,21.1l50.623-50.623c2.56-2.56,5.963-3.969,9.583-3.969c3.62,0,7.023,1.409,9.583,3.969 C156.146,65.765,156.146,74.362,150.862,79.646z"/></symbol><symbol id="danger" viewBox="0 0 44.271 44.271"><title>danger</title><path d="M42.355,10.833l-9.189-9.066c-1.092-1.091-2.674-1.684-4.217-1.684H14.547c-1.541,0-3.02,0.593-4.11,1.684l-8.909,9.076 C0.437,11.934,0,13.404,0,14.945v14.402c0,1.542,0.437,3.021,1.528,4.111l8.998,9.056c1.09,1.09,2.481,1.674,4.022,1.674h14.403 c1.541,0,3.021-0.584,4.111-1.674l9.295-9.071c1.09-1.09,1.914-2.555,1.914-4.097V14.944 C44.269,13.403,43.447,11.924,42.355,10.833z M22.134,32.766c-1.528,0-2.766-1.264-2.766-2.823c0-1.561,1.238-2.824,2.766-2.824 s2.767,1.264,2.767,2.824C24.9,31.502,23.662,32.766,22.134,32.766z M24.9,22.375c0,1.559-1.207,2.822-2.767,2.822 s-2.767-1.264-2.767-2.822v-11.65c0-1.559,1.207-2.824,2.767-2.824S24.9,9.166,24.9,10.724V22.375z"/></symbol><symbol id="info-button" viewBox="0 0 45.999 45.999"><title>info-button</title><path d="M39.264,6.736c-8.982-8.981-23.545-8.982-32.528,0c-8.982,8.982-8.981,23.545,0,32.528c8.982,8.98,23.545,8.981,32.528,0 C48.245,30.281,48.244,15.719,39.264,6.736z M25.999,33c0,1.657-1.343,3-3,3s-3-1.343-3-3V21c0-1.657,1.343-3,3-3s3,1.343,3,3V33z M22.946,15.872c-1.728,0-2.88-1.224-2.844-2.735c-0.036-1.584,1.116-2.771,2.879-2.771c1.764,0,2.88,1.188,2.917,2.771 C25.897,14.648,24.746,15.872,22.946,15.872z"/></symbol></svg>