<svg xmlns="http://www.w3.org/2000/svg" style="display: none;"><symbol id="001-checked" viewBox="0 0 300 300"><title>001-checked</title><path d="M150,0C67.157,0,0,67.157,0,150s67.157,150,150,150s150-67.157,150-150S232.843,0,150,0z M223.413,128.844l-76.696,69.434 c-1.88,1.704-4.072,2.85-6.367,3.452c-1.979,0.882-4.103,1.338-6.235,1.338c-3.794,0-7.594-1.398-10.566-4.217l-47.222-44.826 c-6.147-5.836-6.398-15.549-0.563-21.696c5.83-6.147,15.546-6.401,21.696-0.565l37.587,35.678l67.764-61.355 c6.282-5.688,15.987-5.208,21.675,1.076C230.174,113.448,229.694,123.153,223.413,128.844z"/></symbol><symbol id="002-cancel" viewBox="0 0 300.003 300.003"><title>002-cancel</title><path d="M150,0C67.159,0,0.001,67.159,0.001,150c0,82.838,67.157,150.003,149.997,150.003S300.002,232.838,300.002,150 C300.002,67.159,232.839,0,150,0z M206.584,207.171c-5.989,5.984-15.691,5.984-21.675,0l-34.132-34.132l-35.686,35.686 c-5.986,5.984-15.689,5.984-21.672,0c-5.989-5.991-5.989-15.691,0-21.68l35.683-35.683L95.878,118.14 c-5.984-5.991-5.984-15.691,0-21.678c5.986-5.986,15.691-5.986,21.678,0l33.222,33.222l31.671-31.673 c5.986-5.984,15.694-5.986,21.675,0c5.989,5.991,5.989,15.697,0,21.678l-31.668,31.671l34.13,34.132 C212.57,191.475,212.573,201.183,206.584,207.171z"/></symbol><symbol id="003-info-button" viewBox="0 0 45.999 45.999"><title>003-info-button</title><path d="M39.264,6.736c-8.982-8.981-23.545-8.982-32.528,0c-8.982,8.982-8.981,23.545,0,32.528c8.982,8.98,23.545,8.981,32.528,0 C48.245,30.281,48.244,15.719,39.264,6.736z M25.999,33c0,1.657-1.343,3-3,3s-3-1.343-3-3V21c0-1.657,1.343-3,3-3s3,1.343,3,3V33z M22.946,15.872c-1.728,0-2.88-1.224-2.844-2.735c-0.036-1.584,1.116-2.771,2.879-2.771c1.764,0,2.88,1.188,2.917,2.771 C25.897,14.648,24.746,15.872,22.946,15.872z"/></symbol><symbol id="004-danger" viewBox="0 0 44.271 44.271"><title>004-danger</title><path d="M42.355,10.833l-9.189-9.066c-1.092-1.091-2.674-1.684-4.217-1.684H14.547c-1.541,0-3.02,0.593-4.11,1.684l-8.909,9.076 C0.437,11.934,0,13.404,0,14.945v14.402c0,1.542,0.437,3.021,1.528,4.111l8.998,9.056c1.09,1.09,2.481,1.674,4.022,1.674h14.403 c1.541,0,3.021-0.584,4.111-1.674l9.295-9.071c1.09-1.09,1.914-2.555,1.914-4.097V14.944 C44.269,13.403,43.447,11.924,42.355,10.833z M22.134,32.766c-1.528,0-2.766-1.264-2.766-2.823c0-1.561,1.238-2.824,2.766-2.824 s2.767,1.264,2.767,2.824C24.9,31.502,23.662,32.766,22.134,32.766z M24.9,22.375c0,1.559-1.207,2.822-2.767,2.822 s-2.767-1.264-2.767-2.822v-11.65c0-1.559,1.207-2.824,2.767-2.824S24.9,9.166,24.9,10.724V22.375z"/></symbol><symbol id="005-close" viewBox="0 0 51.976 51.976"><title>005-close</title><path d="M44.373,7.603c-10.137-10.137-26.632-10.138-36.77,0c-10.138,10.138-10.137,26.632,0,36.77s26.632,10.138,36.77,0 C54.51,34.235,54.51,17.74,44.373,7.603z M36.241,36.241c-0.781,0.781-2.047,0.781-2.828,0l-7.425-7.425l-7.778,7.778 c-0.781,0.781-2.047,0.781-2.828,0c-0.781-0.781-0.781-2.047,0-2.828l7.778-7.778l-7.425-7.425c-0.781-0.781-0.781-2.048,0-2.828 c0.781-0.781,2.047-0.781,2.828,0l7.425,7.425l7.071-7.071c0.781-0.781,2.047-0.781,2.828,0c0.781,0.781,0.781,2.047,0,2.828 l-7.071,7.071l7.425,7.425C37.022,34.194,37.022,35.46,36.241,36.241z"/></symbol><symbol id="006-line" viewBox="0 0 52 52"><title>006-line</title><path d="M26,0C11.664,0,0,11.663,0,26s11.664,26,26,26s26-11.663,26-26S40.336,0,26,0z M38.5,28h-25c-1.104,0-2-0.896-2-2 s0.896-2,2-2h25c1.104,0,2,0.896,2,2S39.604,28,38.5,28z"/></symbol><symbol id="007-plus" viewBox="0 0 52 52"><title>007-plus</title><path d="M26,0C11.664,0,0,11.663,0,26s11.664,26,26,26s26-11.663,26-26S40.336,0,26,0z M38.5,28H28v11c0,1.104-0.896,2-2,2 s-2-0.896-2-2V28H13.5c-1.104,0-2-0.896-2-2s0.896-2,2-2H24V14c0-1.104,0.896-2,2-2s2,0.896,2,2v10h10.5c1.104,0,2,0.896,2,2 S39.604,28,38.5,28z"/></symbol></svg>